<?xml version="1.0" encoding="utf-8" ?>
<svg xmlns="http://www.w3.org/2000/svg" xmlns:xlink="http://www.w3.org/1999/xlink" width="100" height="100">
	<path fill="rgba(255,255,255,0)" transform="matrix(0.0976563 0 0 0.0976563 1.52588e-05 0)" d="M0 0L1024 0L1024 877.194L1024 879.777L1024 1024L0 1024L0 788.889L0 787.918L0 0Z"/>
	<path transform="matrix(0.0976563 0 0 0.0976563 1.52588e-05 0)" d="M0 796.035C4.31601 798.926 13.4747 802.477 18.6357 805.002C43.4247 817.127 68.3348 829.055 94.3445 838.369C158.864 861.476 216.971 873.244 285.593 875.362C352.867 877.439 423.795 869.137 490.524 861.133C559.982 852.801 629.277 843.828 698.943 837.348C765.565 831.151 833.915 827.03 900.414 836.583C936.248 841.73 972.04 850.834 1004.75 866.644C1011.31 869.815 1017.65 873.609 1024 877.194L1024 879.777C1016.74 878.625 1009.56 875.945 1002.5 873.888Q990.548 870.491 978.418 867.801Q965.281 864.842 952.027 862.467Q938.772 860.093 925.425 858.307Q912.078 856.522 898.665 855.33Q885.253 854.138 871.8 853.541C789.763 850.206 705.328 859.742 623.919 869.636L486.066 886.111C417.417 894.334 341.995 903.29 273.075 898.062C245.719 895.987 217.964 892.565 191.179 886.601C136.585 874.446 84.3292 851.501 36.9807 821.998C28.7539 816.872 5.35041 802.254 0 796.035Z"/>
	<path transform="matrix(0.0976563 0 0 0.0976563 1.52588e-05 0)" d="M180.516 309.232L180.571 188.195L180.565 155.259C180.543 148.701 180.079 141.735 180.818 135.218C181.156 132.239 182.017 129.55 184.244 127.438C185.909 125.859 187.983 125.107 190.233 124.819C195.073 124.2 200.31 124.554 205.207 124.548L232.542 124.527L275.845 124.539C283.767 124.548 291.812 124.293 299.718 124.717C301.5 124.813 303.244 125.085 304.99 125.445C308.659 128.418 309.835 130.754 310.337 135.495C311.541 146.857 310.125 158.987 310.436 170.467Q322.93 156.642 335.748 143.118C339.74 138.824 343.503 133.763 348.007 130.032C349.777 128.566 351.718 127.159 354.091 127.108C358.916 127.004 361.522 129.508 364.698 132.758L512.137 283.508C527.586 269.979 542.993 252.062 557.295 236.973L629.552 161.581L650.418 139.7C653.817 136.15 657.167 132.183 660.9 129.016C662.725 127.468 664.882 126.919 667.149 126.314C670.1 127.015 673.064 127.542 675.328 129.732C683.972 138.091 691.953 147.581 700.247 156.323Q730.564 188.174 760.397 220.48L867.665 334.883L927.849 399.107C935.26 406.956 953.412 424.53 958.409 432.748C959.227 434.093 959.296 434.831 959.32 436.362Q959.616 473.513 959.357 510.665C959.301 522.668 958.814 534.851 959.315 546.839C949.018 536.512 939.383 525.421 929.449 514.739C919.407 503.942 908.971 493.472 899.251 482.385C898.511 503.755 899.315 525.341 899.333 546.743L899.344 661.57L899.248 744.409C899.233 757.976 898.876 771.654 899.422 785.208C933.591 797.411 995.084 831.347 1017.49 860.728C1003.19 853.591 989.453 845.448 975.03 838.534C930.143 817.015 877.926 798.721 828.905 789.73C668.371 760.288 507.001 807.796 347.914 825.055C262.22 834.351 176.427 833.765 91.8667 815.485C72.5019 811.299 53.7504 805.663 34.7496 800.157C23.4735 796.89 10.5571 794.012 0 788.889L0 787.918Q20.7161 789.645 41.383 791.885C68.8115 795.129 96.2573 799.152 123.773 801.521L123.988 656.144L123.565 483.008C112.883 493.784 102.032 504.443 91.5895 515.449C82.5893 524.934 73.7725 535.207 64.0422 543.927L63.9265 472.355C63.9058 459.876 63.1722 447.022 64.0727 434.588C70.3224 425.413 83.1646 413.91 91.1392 405.426L156.532 334.788C164.28 326.305 173.555 318.316 180.516 309.232Z"/>
	<path fill="white" transform="matrix(0.0976563 0 0 0.0976563 1.52588e-05 0)" d="M203.824 147.63C231.44 147.295 259.113 147.701 286.734 147.706Q287.149 171.923 286.67 196.139C281.252 203.053 275.025 209.327 269.04 215.741L244.256 242.413C230.563 256.767 216.662 271.154 203.947 286.386C203.288 240.157 203.764 193.864 203.824 147.63Z"/>
	<path fill="white" transform="matrix(0.0976563 0 0 0.0976563 1.52588e-05 0)" d="M291.528 534.947L350.269 534.977C366.976 534.91 383.746 534.526 400.444 535.076C401.034 586.436 400.438 637.855 400.447 689.223L400.431 754.394C400.413 767.458 400.664 780.603 400.046 793.652L389.487 795.093C378.738 796.262 368.061 798.069 357.321 799.333Q324.507 803.259 291.537 805.527L291.528 534.947Z"/>
	<path transform="matrix(0.0976563 0 0 0.0976563 1.52588e-05 0)" d="M307.887 643.833L317.528 644.198C317.577 660.051 317.827 675.87 317.617 691.726C314.328 692.015 310.973 691.971 307.671 692.037C307.292 675.991 307.711 659.88 307.887 643.833Z"/>
	<path fill="white" transform="matrix(0.0976563 0 0 0.0976563 1.52588e-05 0)" d="M667.444 157.39C676.028 164.426 683.412 174.247 691.111 182.338L752.192 247.162L934.482 441.467L934.466 482.185C919.16 467.521 904.962 451.653 890.455 436.204Q872.276 417.112 853.793 398.314L669.057 207.208C663.971 212.635 658.533 217.738 653.369 223.093L596.79 281.59C568.5 310.762 540.546 340.271 511.806 369.009C496.271 353.809 481.289 337.951 466.047 322.45C448.492 304.597 430.645 287.02 413.242 269.022Q394.723 249.803 375.845 230.938C368.469 223.483 361.271 215.661 353.396 208.731C350.243 210.03 323.787 238.533 319.77 242.679Q248.699 315.293 178.935 389.161L120.932 450.432C110.571 461.499 100.052 475.111 88.5226 484.625Q88.3887 463.495 88.4948 442.365C103.441 427.256 117.338 411.222 132.037 395.892L295.185 223.087C315.411 201.551 334.581 178.738 355.529 157.925C376.986 178.078 396.992 200.041 417.304 221.346L466.094 271.563L491.975 298.533C498.598 305.486 505.047 313.019 512.475 319.135C516.685 315.327 520.515 310.927 524.44 306.824L550.258 279.719L634.18 192.348C645.313 180.724 656.056 168.773 667.444 157.39Z"/>
	<path fill="white" transform="matrix(0.0976563 0 0 0.0976563 1.52588e-05 0)" d="M353.193 242.39C356.831 244.273 364.078 252.815 367.463 256.218Q390.175 278.727 412.236 301.875Q462.298 352.479 511.488 403.929C553.455 362.391 593.864 319.232 635.165 277.027C646.513 265.431 657.421 253.488 669.081 242.186C675.008 247.189 680.281 253.136 685.679 258.704C696.93 270.309 707.915 282.191 719.271 293.688L818.348 395.827Q846.656 425.841 875.498 455.343L875.068 623.542Q875.656 700.488 875.131 777.435Q859.368 772.309 843.27 768.362Q827.171 764.415 810.825 761.668C725.313 747.778 630.06 758.899 544.975 771.398L466.362 783.549C450.157 786.101 433.852 789.531 417.486 790.763L417.563 518.871C402.744 518.002 386.957 518.796 372.024 518.744Q322.826 518.505 273.629 518.871L273.617 733.536Q273.886 769.998 273.773 806.46C261.703 807.724 249.471 807.629 237.346 807.652C207.253 807.71 177.543 805.99 147.568 803.414C146.858 755.611 147.607 707.705 147.603 659.89L147.745 456.964C160.305 443.093 173.725 430.034 186.572 416.447Q236.099 363.744 286.43 311.806L331.812 264.193C338.839 256.882 345.648 249.164 353.193 242.39Z"/>
	<path transform="matrix(0.0976563 0 0 0.0976563 1.52588e-05 0)" d="M601.328 518.243L754.622 518.501C755.205 540.927 754.655 563.401 754.672 585.835L754.512 729.516L740.52 729.505L586.559 729.412L586.502 518.422L601.328 518.243Z"/>
	<path fill="white" transform="matrix(0.0976563 0 0 0.0976563 1.52588e-05 0)" d="M609.785 534.734Q635.932 534.447 662.076 534.936Q661.668 624.024 662.441 713.108L655.496 713.29Q629.331 713.751 603.168 713.157C602.339 693.764 603.267 673.25 603.192 653.715C603.05 616.528 602.511 579.176 603.27 542.004C603.305 540.274 603.004 537.328 603.941 535.849C605.818 534.889 607.722 534.884 609.785 534.734Z"/>
	<path fill="white" transform="matrix(0.0976563 0 0 0.0976563 1.52588e-05 0)" d="M672.62 534.612C694.442 534.43 716.524 533.868 738.322 534.707L738.462 658.486C738.415 676.697 738.79 694.965 738.327 713.167C716.406 713.245 694.359 713.847 672.454 713.305C671.986 706.205 672.338 698.928 672.37 691.81L672.418 655.419L672.62 534.612Z"/>
</svg>
